# xmcd
#
# Track frame offsets:
#	150
#	24517
#	43420
#	64170
#	84567
#	112175
#	130850
#	149647
#	176222
#	206417
#
# Disc length: 2954 seconds
# Revision: 0
# Processed by: cddbd v1.5.2PL0 Copyright (c) Steve Scherf et al.
# Submitted via: dBpowerAMP V12.0
#
DISCID=9b0b880a
DTITLE=Segan' - 1996-To my Lord
DYEAR=1996
DGENRE=Gospel
TTITLE0=To my Lord
TTITLE1=The road to freedom
TTITLE2=Stand up ! soul brother
TTITLE3=Shepherd of Israel light up your face
TTITLE4=Joseph
TTITLE5=Is it I ?
TTITLE6=Nobody knows
TTITLE7=Sometimes I feel like a motherless child
TTITLE8=Summertime
TTITLE9=Glory to God
EXTD=
EXTT0=
EXTT1=
EXTT2=
EXTT3=
EXTT4=
EXTT5=
EXTT6=
EXTT7=
EXTT8=
EXTT9=
PLAYORDER=
